<svg width="20" height="20" fill="none" xmlns="http://www.w3.org/2000/svg"><g clip-path="url(#clip0)" fill="#FF5F11"><path d="M10 18.75a8.75 8.75 0 110-17.5 8.75 8.75 0 010 17.5zM10 20a10 10 0 100-20 10 10 0 000 20z"/><path d="M6.569 7.232a.296.296 0 00.3.31h1.032c.172 0 .31-.142.332-.313.113-.82.675-1.418 1.678-1.418.857 0 1.643.429 1.643 1.46 0 .794-.468 1.159-1.207 1.714-.841.611-1.507 1.325-1.46 2.484l.004.271a.312.312 0 00.313.307h1.013a.312.312 0 00.313-.312v-.131c0-.898.341-1.159 1.262-1.858.761-.579 1.555-1.221 1.555-2.57 0-1.889-1.595-2.801-3.341-2.801-1.584 0-3.319.737-3.438 2.857zm1.946 7.204c0 .666.531 1.159 1.262 1.159.762 0 1.285-.493 1.285-1.159 0-.69-.525-1.175-1.286-1.175-.73 0-1.261.485-1.261 1.175z"/></g><defs><clipPath id="clip0"><path fill="#fff" d="M0 0h20v20H0z"/></clipPath></defs></svg>