<svg xmlns="http://www.w3.org/2000/svg" width="192" height="44"><path d="M22 0C9.85 0 0 9.85 0 22s9.85 22 22 22 22-9.85 22-22S34.15 0 22 0zm0 3.996c.666.005 1.337.044 1.998.123v15.66c.608.55 1 1.338 1 2.221 0 .053-.01.1-.016.152L33.2 30.37a14.086 14.086 0 01-2.83 2.834l-8.215-8.217c-.053.006-.101.016-.154.016a3 3 0 01-2.998-2.998c0-.883.392-1.669 1-2.219V4.135A19.41 19.41 0 0122 3.996zm131.715 4.559c-.836 0-1.512.238-2.035.724a2.364 2.364 0 00-.784 1.803c0 .72.26 1.316.784 1.803.523.48 1.205.723 2.035.728.835 0 1.512-.248 2.035-.74.529-.497.79-1.12.79-1.877a2.24 2.24 0 00-.79-1.744c-.523-.465-1.205-.697-2.035-.697zm-99.485.052v4.157h7.276v17.875h5.098V12.764h7.052V8.607H54.23zm94.932 7.329c-1.126 0-2.119.18-2.98.544-.862.365-1.551.9-2.059 1.608V15.94h-4.154v14.704h4.244l.101-6.758c0-1.36.348-2.379 1.036-3.06.692-.683 1.645-1.022 2.86-1.022.165 0 .482.015.952.052v-3.921zm-37.363.005c-1.227 0-2.348.28-3.363.846a6.268 6.268 0 00-2.422 2.379c-.598 1.02-.893 2.2-.893 3.537 0 1.332.295 2.517.893 3.537a6.305 6.305 0 002.422 2.38c1.015.565 2.136.845 3.363.845 1.803 0 3.209-.581 4.219-1.744v.597c0 1.285-.318 2.24-.957 2.875-.64.635-1.624.953-2.967.953a8.173 8.173 0 01-2.58-.43c-.862-.285-1.36-.442-1.92-.929l-2.156 2.264c.76.629 2.125 1.527 3.283 1.855 1.158.328 2.383.49 3.674.49 2.448 0 4.31-.623 5.584-1.87 1.274-1.254 1.914-3.163 1.914-5.727V15.945h-3.674v1.998c-1.01-1.337-2.485-2.002-4.42-2.002zm39.816 0v14.704h4.246V15.94h-4.246zm6.783 0V30.64h4.194v-7.15c0-1.29.312-2.262.941-2.918.63-.655 1.47-.984 2.528-.984.951 0 1.675.282 2.177.848.497.565.752 1.42.752 2.568v7.635h4.192v-8.28c0-2.115-.555-3.711-1.655-4.785-1.1-1.073-2.549-1.613-4.336-1.613-.988 0-1.892.165-2.716.498-.82.333-1.514.804-2.069 1.412v-1.93h-4.008zm25.227 0c-1.507 0-2.86.317-4.055.946-1.2.629-2.137 1.501-2.808 2.617-.672 1.116-1.01 2.384-1.01 3.8 0 1.418.338 2.688 1.01 3.803.676 1.116 1.613 1.988 2.808 2.618 1.195.634 2.548.945 4.055.945 1.507 0 2.85-.316 4.04-.945 1.183-.63 2.119-1.502 2.79-2.618.672-1.115 1.01-2.385 1.01-3.802 0-1.417-.338-2.685-1.01-3.801-.671-1.116-1.601-1.988-2.79-2.617-1.185-.63-2.533-.946-4.04-.946zm-104.941.004a12.54 12.54 0 00-3.358.45c-1.089.3-.692.205-1.623.628v3.506c.513-.402 1.445-.697 2.18-.935a7.221 7.221 0 012.24-.36c1.1 0 1.92.244 2.47.73.55.487.825 1.179.825 2.083h-3.295c-2.088 0-3.632.381-4.63 1.142-1 .757-1.503 1.802-1.503 3.13 0 .835.218 1.576.64 2.232.43.655 1.043 1.169 1.847 1.539.803.37 1.753.555 2.853.555 2.12 0 3.574-.662 4.352-1.989v1.983h3.877v-8.354c0-2.125-.593-3.711-1.778-4.764-1.184-1.052-2.882-1.576-5.097-1.576zm9.38 0v14.7h4.204V23.48c0-1.295.312-2.268.941-2.923.63-.656 1.474-.985 2.531-.985.952 0 1.682.286 2.184.852.502.566.756 1.423.756 2.57v7.65h4.205v-8.296c0-2.12-.551-3.717-1.656-4.795-1.1-1.079-2.554-1.618-4.362-1.608-.983 0-1.894.165-2.719.498a5.533 5.533 0 00-2.072 1.41v-1.908h-4.012zm42.006 0c-1.438 0-2.732.313-3.89.942a6.987 6.987 0 00-2.735 2.627c-.66 1.126-.994 2.391-.994 3.787 0 1.417.338 2.68 1.01 3.795.671 1.115 1.63 1.988 2.867 2.617 1.243.63 2.665.941 4.277.941 2.586 0 4.552-.772 5.895-2.31l-2.205-2.389a4.837 4.837 0 01-1.607 1.047c-.577.222-1.232.332-1.977.332-1.079 0-1.983-.259-2.707-.771-.724-.513-1.185-1.217-1.38-2.1h10.806c.052-.687.079-1.061.074-1.104 0-1.485-.322-2.791-.967-3.918a6.627 6.627 0 00-2.67-2.591c-1.131-.603-2.4-.905-3.797-.905zm.032 3.131c.92 0 1.698.27 2.337.809.635.54 1.026 1.258 1.168 2.162h-7.037c.143-.92.529-1.65 1.168-2.178.64-.529 1.428-.793 2.364-.793zm-17.532.186c1.031 0 1.866.316 2.522.95.65.635.978 1.465.978 2.485 0 1.026-.323 1.85-.978 2.485-.656.634-1.496.953-2.522.953-1.025 0-1.872-.319-2.533-.953-.66-.635-.994-1.459-.994-2.485 0-1.025.333-1.85.994-2.484.661-.635 1.502-.951 2.533-.951zm71.055.078c1.063 0 1.935.359 2.617 1.078.682.719 1.026 1.681 1.026 2.887 0 1.205-.344 2.167-1.026 2.886-.682.714-1.554 1.075-2.617 1.08-1.063 0-1.94-.36-2.633-1.08-.692-.719-1.037-1.68-1.037-2.886 0-1.206.345-2.168 1.037-2.887.693-.72 1.57-1.078 2.633-1.078zM78.584 24.469h2.84v.814c0 .804-.38 1.57-1.047 2.014l-.123.074c-.55.328-1.178.492-1.881.492-.724 0-1.295-.153-1.713-.465-.418-.306-.625-.73-.625-1.26 0-1.115.852-1.67 2.549-1.67z" fill="#fff"/></svg>