<svg width="20" height="20" fill="none" xmlns="http://www.w3.org/2000/svg"><g clip-path="url(#clip0)"><path d="M10 20a2.5 2.5 0 002.5-2.5h-5A2.5 2.5 0 0010 20zm0-17.602l-.996.2A5.002 5.002 0 005 7.5c0 .785-.168 2.746-.574 4.678-.2.958-.47 1.957-.829 2.822h12.806c-.36-.865-.628-1.863-.83-2.822C15.169 10.245 15 8.285 15 7.5a5.002 5.002 0 00-4.004-4.9L10 2.396v.002zM17.775 15c.279.559.601 1.001.975 1.25H1.25c.374-.249.696-.691.975-1.25C3.35 12.75 3.75 8.6 3.75 7.5c0-3.025 2.15-5.55 5.006-6.126a1.25 1.25 0 112.488 0A6.252 6.252 0 0116.25 7.5c0 1.1.4 5.25 1.525 7.5z" fill="#fff"/></g><defs><clipPath id="clip0"><path fill="#fff" d="M0 0h20v20H0z"/></clipPath></defs></svg>