<svg width="20" height="20" viewBox="0 0 20 20" fill="none" xmlns="http://www.w3.org/2000/svg">
<g clip-path="url(#clip0)">
<path d="M9.99976 18.75C7.67911 18.75 5.45351 17.8281 3.81257 16.1872C2.17163 14.5462 1.24976 12.3206 1.24976 10C1.24976 7.67936 2.17163 5.45376 3.81257 3.81282C5.45351 2.17187 7.67911 1.25 9.99976 1.25C12.3204 1.25 14.546 2.17187 16.1869 3.81282C17.8279 5.45376 18.7498 7.67936 18.7498 10C18.7498 12.3206 17.8279 14.5462 16.1869 16.1872C14.546 17.8281 12.3204 18.75 9.99976 18.75ZM9.99976 20C12.6519 20 15.1955 18.9464 17.0708 17.0711C18.9462 15.1957 19.9998 12.6522 19.9998 10C19.9998 7.34784 18.9462 4.8043 17.0708 2.92893C15.1955 1.05357 12.6519 0 9.99976 0C7.34759 0 4.80405 1.05357 2.92869 2.92893C1.05332 4.8043 -0.000244141 7.34784 -0.000244141 10C-0.000244141 12.6522 1.05332 15.1957 2.92869 17.0711C4.80405 18.9464 7.34759 20 9.99976 20Z" fill="#FF5F11"/>
<path d="M6.5685 7.2325C6.56679 7.27287 6.57336 7.31316 6.58779 7.3509C6.60223 7.38863 6.62423 7.42302 6.65245 7.45194C6.68066 7.48085 6.7145 7.5037 6.75187 7.51906C6.78924 7.53442 6.82936 7.54197 6.86975 7.54125H7.901C8.0735 7.54125 8.211 7.4 8.2335 7.22875C8.346 6.40875 8.9085 5.81125 9.911 5.81125C10.7685 5.81125 11.5535 6.24 11.5535 7.27125C11.5535 8.065 11.086 8.43 10.3473 8.985C9.506 9.59625 8.83975 10.31 8.88725 11.4688L8.891 11.74C8.89232 11.822 8.92582 11.9002 8.98428 11.9577C9.04274 12.0153 9.12148 12.0475 9.2035 12.0475H10.2173C10.3001 12.0475 10.3796 12.0146 10.4382 11.956C10.4968 11.8974 10.5298 11.8179 10.5298 11.735V11.6038C10.5298 10.7063 10.871 10.445 11.7923 9.74625C12.5535 9.1675 13.3473 8.525 13.3473 7.17625C13.3473 5.2875 11.7523 4.375 10.006 4.375C8.42225 4.375 6.68725 5.1125 6.5685 7.2325ZM8.51475 14.4362C8.51475 15.1025 9.046 15.595 9.77725 15.595C10.5385 15.595 11.0623 15.1025 11.0623 14.4362C11.0623 13.7463 10.5373 13.2613 9.776 13.2613C9.046 13.2613 8.51475 13.7463 8.51475 14.4362Z" fill="#FF5F11"/>
</g>
<defs>
<clipPath id="clip0">
<rect width="20" height="20" fill="white" transform="translate(-0.000244141)"/>
</clipPath>
</defs>
</svg>
