<svg width="60" height="60" viewBox="0 0 60 60" fill="none" xmlns="http://www.w3.org/2000/svg">
<path d="M33.638 18.6375C34.1628 18.1173 34.8713 17.8245 35.6102 17.8225C36.3492 17.8204 37.0592 18.1093 37.5869 18.6266C38.1146 19.1439 38.4175 19.8482 38.4301 20.587C38.4427 21.3259 38.164 22.04 37.6542 22.575L22.6842 41.2875C22.4269 41.5646 22.1164 41.787 21.7712 41.9414C21.426 42.0957 21.0532 42.1789 20.6752 42.1859C20.2971 42.1929 19.9215 42.1236 19.5708 41.9821C19.2201 41.8406 18.9016 41.6299 18.6342 41.3625L8.71547 31.44C8.43914 31.1825 8.21751 30.872 8.06379 30.527C7.91007 30.182 7.82741 29.8096 7.82075 29.432C7.81409 29.0543 7.88355 28.6792 8.02501 28.329C8.16646 27.9788 8.377 27.6607 8.64407 27.3936C8.91115 27.1265 9.22927 26.916 9.57948 26.7745C9.92968 26.6331 10.3048 26.5636 10.6824 26.5703C11.0601 26.577 11.4325 26.6596 11.7775 26.8133C12.1225 26.967 12.433 27.1887 12.6905 27.465L20.543 35.3138L33.563 18.72C33.5863 18.6911 33.6114 18.6635 33.638 18.6375ZM30.188 37.9125L33.638 41.3625C33.9053 41.6293 34.2236 41.8396 34.5739 41.9807C34.9242 42.1218 35.2994 42.191 35.677 42.184C36.0546 42.177 36.427 42.094 36.7718 41.94C37.1167 41.786 37.427 41.5641 37.6842 41.2875L52.6542 22.575C52.9231 22.3095 53.1358 21.9925 53.2795 21.643C53.4232 21.2935 53.495 20.9187 53.4906 20.5408C53.4862 20.1629 53.4056 19.7898 53.2538 19.4438C53.102 19.0977 52.882 18.7858 52.607 18.5266C52.332 18.2675 52.0075 18.0664 51.6531 17.9354C51.2986 17.8044 50.9214 17.7462 50.5439 17.7643C50.1665 17.7823 49.7965 17.8763 49.4561 18.0405C49.1158 18.2047 48.812 18.4358 48.563 18.72L35.5392 35.3138L33.7205 33.4913L30.1842 37.9125H30.188Z" fill="#3F80EA"/>
</svg>
