<svg width="20" height="20" viewBox="0 0 20 20" fill="none" xmlns="http://www.w3.org/2000/svg">
<g clip-path="url(#clip0)">
<path d="M9.99976 20C10.6628 20 11.2987 19.7366 11.7675 19.2678C12.2364 18.7989 12.4998 18.163 12.4998 17.5H7.49976C7.49976 18.163 7.76315 18.7989 8.23199 19.2678C8.70083 19.7366 9.33671 20 9.99976 20ZM9.99976 2.3975L9.00351 2.59875C7.87346 2.829 6.85767 3.44262 6.12807 4.33577C5.39847 5.22892 4.99988 6.34673 4.99976 7.5C4.99976 8.285 4.83226 10.2462 4.42601 12.1775C4.22601 13.1362 3.95601 14.135 3.59726 15H16.4023C16.0435 14.135 15.7748 13.1375 15.5735 12.1775C15.1673 10.2462 14.9998 8.285 14.9998 7.5C14.9993 6.34694 14.6006 5.22943 13.871 4.33654C13.1415 3.44365 12.1258 2.8302 10.996 2.6L9.99976 2.39625V2.3975ZM17.7748 15C18.0535 15.5587 18.376 16.0012 18.7498 16.25H1.24976C1.62351 16.0012 1.94601 15.5587 2.22476 15C3.34976 12.75 3.74976 8.59999 3.74976 7.5C3.74976 4.475 5.89976 1.94999 8.75601 1.37374C8.73856 1.19994 8.75774 1.0244 8.8123 0.858461C8.86686 0.69252 8.9556 0.539857 9.07278 0.410318C9.18997 0.280778 9.33301 0.177238 9.49267 0.106376C9.65233 0.0355132 9.82508 -0.00109863 9.99976 -0.00109863C10.1744 -0.00109863 10.3472 0.0355132 10.5068 0.106376C10.6665 0.177238 10.8095 0.280778 10.9267 0.410318C11.0439 0.539857 11.1327 0.69252 11.1872 0.858461C11.2418 1.0244 11.261 1.19994 11.2435 1.37374C12.6564 1.66112 13.9265 2.42795 14.8388 3.54437C15.7511 4.6608 16.2496 6.05821 16.2498 7.5C16.2498 8.59999 16.6498 12.75 17.7748 15Z" fill="#FF5F11"/>
</g>
<defs>
<clipPath id="clip0">
<rect width="20" height="20" fill="white" transform="translate(-0.000244141)"/>
</clipPath>
</defs>
</svg>
