<svg width="60" height="60" viewBox="0 0 60 60" fill="none" xmlns="http://www.w3.org/2000/svg">
<path d="M26.2578 41.25C26.2578 40.7576 26.3548 40.2699 26.5433 39.815C26.7317 39.36 27.0079 38.9466 27.3562 38.5984C27.7044 38.2501 28.1178 37.9739 28.5728 37.7855C29.0277 37.597 29.5154 37.5 30.0078 37.5C30.5003 37.5 30.9879 37.597 31.4429 37.7855C31.8978 37.9739 32.3112 38.2501 32.6595 38.5984C33.0077 38.9466 33.2839 39.36 33.4724 39.815C33.6608 40.2699 33.7578 40.7576 33.7578 41.25C33.7578 42.2446 33.3627 43.1984 32.6595 43.9017C31.9562 44.6049 31.0024 45 30.0078 45C29.0133 45 28.0594 44.6049 27.3562 43.9017C26.6529 43.1984 26.2578 42.2446 26.2578 41.25ZM26.6253 18.7313C26.5754 18.2582 26.6255 17.7799 26.7723 17.3274C26.9192 16.8749 27.1595 16.4583 27.4778 16.1047C27.796 15.7511 28.185 15.4684 28.6196 15.2748C29.0542 15.0813 29.5246 14.9813 30.0003 14.9813C30.476 14.9813 30.9464 15.0813 31.381 15.2748C31.8156 15.4684 32.2046 15.7511 32.5229 16.1047C32.8411 16.4583 33.0815 16.8749 33.2283 17.3274C33.3752 17.7799 33.4252 18.2582 33.3753 18.7313L32.0628 31.8825C32.0095 32.3924 31.7692 32.8644 31.3883 33.2075C31.0074 33.5507 30.513 33.7405 30.0003 33.7405C29.4877 33.7405 28.9932 33.5507 28.6123 33.2075C28.2314 32.8644 27.9911 32.3924 27.9378 31.8825L26.6253 18.7313Z" fill="#3F80EA"/>
</svg>
