<svg width="16" height="16" viewBox="0 0 16 16" fill="none" xmlns="http://www.w3.org/2000/svg">
<g clip-path="url(#clip0)">
<path fill-rule="evenodd" clip-rule="evenodd" d="M15.854 5.14599C15.9006 5.19244 15.9375 5.24761 15.9627 5.30836C15.9879 5.3691 16.0009 5.43423 16.0009 5.49999C16.0009 5.56576 15.9879 5.63088 15.9627 5.69163C15.9375 5.75237 15.9006 5.80755 15.854 5.85399L12.854 8.85399C12.8076 8.90056 12.7524 8.9375 12.6917 8.96271C12.6309 8.98791 12.5658 9.00089 12.5 9.00089C12.4343 9.00089 12.3691 8.98791 12.3084 8.96271C12.2476 8.9375 12.1925 8.90056 12.146 8.85399L10.646 7.35399C10.5521 7.26011 10.4994 7.13277 10.4994 6.99999C10.4994 6.86722 10.5521 6.73988 10.646 6.64599C10.7399 6.55211 10.8672 6.49936 11 6.49936C11.1328 6.49936 11.2601 6.55211 11.354 6.64599L12.5 7.79299L15.146 5.14599C15.1925 5.09943 15.2476 5.06249 15.3084 5.03728C15.3691 5.01207 15.4343 4.9991 15.5 4.9991C15.5658 4.9991 15.6309 5.01207 15.6917 5.03728C15.7524 5.06249 15.8076 5.09943 15.854 5.14599Z" fill="#FF5F11"/>
<path d="M1 14C1 14 0 14 0 13C0 12 1 9 6 9C11 9 12 12 12 13C12 14 11 14 11 14H1ZM6 8C6.79565 8 7.55871 7.68393 8.12132 7.12132C8.68393 6.55871 9 5.79565 9 5C9 4.20435 8.68393 3.44129 8.12132 2.87868C7.55871 2.31607 6.79565 2 6 2C5.20435 2 4.44129 2.31607 3.87868 2.87868C3.31607 3.44129 3 4.20435 3 5C3 5.79565 3.31607 6.55871 3.87868 7.12132C4.44129 7.68393 5.20435 8 6 8Z" fill="#FF5F11"/>
</g>
<defs>
<clipPath id="clip0">
<rect width="16" height="16" fill="white"/>
</clipPath>
</defs>
</svg>
